<?xml version="1.0" encoding="utf-8"?>
<!-- Generator: Adobe Illustrator 20.0.0, SVG Export Plug-In . SVG Version: 6.00 Build 0)  -->
<svg version="1.1" id="Layer_1" xmlns="http://www.w3.org/2000/svg" xmlns:xlink="http://www.w3.org/1999/xlink" x="0px" y="0px"
	 viewBox="0 0 88.3 88.4" style="enable-background:new 0 0 88.3 88.4;" xml:space="preserve">
<style type="text/css">
	.st0{fill:#5C3A53;}
	.st1{fill:#238943;}
</style>
<g>
	<path class="st0" d="M0,66.9c0-2,0-4,0-6c0.2-0.5,0.3-0.9,0.5-1.4c1.1-4.9,3.6-8.9,7.8-11.8c3.1-2.2,6.5-3.6,10-4.7
		c7.9-2.5,15.4-5.8,22.2-10.5c5.8-3.9,11.1-8.3,15.7-13.7c3.5,0.2,6.9,0.4,10.4,0.6c0.8,0,1.1,0.3,1.1,1c0,2.6,0.1,5.2,0,7.8
		c0,2.2,0.5,2.7,2.7,2c0.8-0.3,1.6-0.7,2.4-1c1.2-0.6,2.5-1.2,3.6-1.8c1.1-0.6,2-0.4,2.5,0.7c0.8,1.5,1.6,3.1,2,4.7
		c0.4,1.6,1,2.9,2.1,4.1c-0.2,0.6-0.4,1.2-0.5,1.8c-1.1,4.5-2.7,8.8-4.9,12.8C73.4,59.7,67.5,66.6,60.8,73
		c-4.7,4.5-9.9,8.4-15.8,11.2c-8.9,4.3-18.2,5.8-27.8,2.4C9,83.6,3,78.2,0.6,69.5C0.4,68.6,0.2,67.8,0,66.9z"/>
	<path class="st1" d="M83.6,10.8c0.5,0.5,0.6,0.7,1.1,1.2c3.3,3.2,3.4,7.3,3.6,11.7c0.2,3.7-0.4,7.4-1.6,10.9
		c-0.2,0.7-0.6,1.3-1,1.9c-0.8,1-1.4,1.1-2.5,0.3c-1.1-1.2-1.6-2.5-2.1-4.1c-0.4-1.6-1.2-3.2-2-4.7c-0.5-1-1.4-1.3-2.5-0.7
		c-1.2,0.7-2.4,1.2-3.6,1.8c-0.8,0.4-1.6,0.8-2.4,1c-2.2,0.7-2.7,0.3-2.7-2c0-2.6,0-5.2,0-7.8c0-0.7-0.3-1-1.1-1
		c-3.5-0.2-6.9-0.4-10.4-0.6c-0.9-0.1-1.9-0.2-2.8-0.4c-1-0.2-1.5-0.8-1.5-1.8c0-1.1,0.6-1.5,1.5-1.7c2.4-0.4,4.3-1.6,6.2-3
		c1.6-1.3,3.2-2.6,4.9-3.8c3.5-2.4,7.3-3,11.4-1.6c0.4,0.1,1.5,0.6,1.8,0.4c3.9,0,4.5-4.4,4.4-7c1.7,1,3.6,2.1,3.6,2.1
		C86.1,3.6,86.5,8.7,83.6,10.8z"/>
</g>
</svg>
