<?xml version="1.0" encoding="utf-8"?>
<!-- Generator: Adobe Illustrator 20.0.0, SVG Export Plug-In . SVG Version: 6.00 Build 0)  -->
<svg version="1.1" id="Layer_1" xmlns="http://www.w3.org/2000/svg" xmlns:xlink="http://www.w3.org/1999/xlink" x="0px" y="0px"
	 viewBox="0 0 74.5 79.6" style="enable-background:new 0 0 74.5 79.6;" xml:space="preserve">
<style type="text/css">
	.st0{fill:#228942;}
</style>
<g>
	<path class="st0" d="M49.6,10.7c-21,3.4-42.3,16.8-46.9,38C0.6,58.4,1.4,65.2,0,73.9c3.5-6.1,7-11.3,10.6-16
		c-0.9-3.1-2.1-9.2-0.5-15.5c0,0,0.9,7.8,3.3,11.9c1.9-2.3,3.9-4.5,5.8-6.5c-0.4-4.6-0.8-16.5,4.5-22c0,0-3.2,11.8-1.3,18.9
		C38,30.1,51.1,27.1,51.1,27.1c-7.7,4.4-14.3,9.2-20.1,14.2c6.2-0.5,18.8-4.7,18.8-4.7c-9.6,5.8-19,8-23.2,8.8
		c-3.9,3.8-7.2,7.6-10.2,11.5c10.7,0.7,32.2-7.5,32.2-7.5c-10.2,7.3-28.6,10.9-35.4,12C12.4,62.6,7.1,72,3.8,79.6
		c5-1.8,12.6-4.5,20.7-6.7c13.6-3.8,31.6-9,40.5-29.4c8.8-20.3,4.7-35.8,9.5-43.3C73.7,1.3,68.7,7.7,49.6,10.7z"/>
	<path class="st0" d="M74.4,0.2C74.5,0.1,74.5,0,74.5,0C74.5,0.1,74.5,0.1,74.4,0.2z"/>
</g>
</svg>
