<?xml version="1.0" encoding="utf-8"?>
<!-- Generator: Adobe Illustrator 20.0.0, SVG Export Plug-In . SVG Version: 6.00 Build 0)  -->
<svg version="1.1" id="Layer_1" xmlns="http://www.w3.org/2000/svg" xmlns:xlink="http://www.w3.org/1999/xlink" x="0px" y="0px"
	 viewBox="0 0 100 125" style="enable-background:new 0 0 100 125;" xml:space="preserve">
<style type="text/css">
	.st0{fill:#B6E355;}
	.st1{fill:#228942;}
</style>
<polygon class="st0" points="50.6,25.7 73.3,56.2 72.9,70.1 53.1,77.8 52.1,79.6 51.4,88.3 47.1,88.3 47,74.8 25.5,66.4 32.7,44.1 
	"/>
<path class="st1" d="M52.8,80.7v7.6h-1.3V71.4L72,66.2l-20.6,1.1L69.3,56l-17.9,6.9l10.6-17.8L51.4,57.8L50,26.9l-1.4,30.9
	L37.9,45.1l10.6,17.8L30.7,56l17.9,11.4L28,66.2l20.6,5.1v16.9h-1.5v-7.6c-7.2-0.4-37.5-4.2-17.7-37l20.7-32l20.7,32
	C90.6,76.7,59.7,80.3,52.8,80.7z"/>
</svg>
